<?xml version="1.0" standalone="no"?>
<!DOCTYPE svg PUBLIC "-//W3C//DTD SVG 20010904//EN"
 "http://www.w3.org/TR/2001/REC-SVG-20010904/DTD/svg10.dtd">
<svg version="1.0" xmlns="http://www.w3.org/2000/svg"
 width="1024.000000pt" height="1024.000000pt" viewBox="0 0 1024.000000 1024.000000"
 preserveAspectRatio="xMidYMid meet">
<metadata>
Created by potrace 1.11, written by Peter Selinger 2001-2013
</metadata>
<g transform="translate(0.000000,1024.000000) scale(0.100000,-0.100000)"
fill="#000000" stroke="none">
<path d="M1184 8453 c-88 -20 -162 -61 -229 -128 -63 -62 -98 -122 -121 -210
-11 -41 -14 -499 -14 -2635 0 -2481 1 -2587 19 -2646 41 -136 152 -257 276
-301 48 -17 72 -20 195 -28 52 -4 122 -8 155 -10 33 -3 98 -7 145 -10 47 -3
99 -8 115 -10 17 -2 56 -7 88 -10 31 -3 83 -7 115 -10 31 -3 71 -8 87 -10 17
-2 57 -7 90 -10 33 -3 71 -8 85 -10 14 -3 52 -7 85 -11 69 -7 72 -7 220 -29
182 -26 410 -67 620 -111 11 -2 45 -9 75 -15 30 -6 107 -24 170 -41 63 -16
124 -31 135 -34 54 -10 373 -108 485 -148 141 -50 310 -118 415 -166 212 -98
261 -107 348 -67 34 16 67 41 93 72 l39 48 2 2776 c2 2101 0 2785 -9 2814 -18
59 -64 101 -182 168 -159 89 -405 208 -461 223 -5 1 -28 10 -50 20 -48 20
-324 119 -380 136 -22 6 -47 14 -55 16 -8 3 -16 5 -17 5 -2 0 -22 7 -45 15
-35 12 -157 46 -248 69 -137 33 -358 85 -390 91 -14 2 -72 13 -130 24 -155 28
-270 48 -315 54 -22 2 -69 9 -105 15 -105 17 -132 21 -183 26 -26 2 -62 7 -80
10 -37 6 -111 14 -182 21 -27 2 -70 6 -95 9 -25 2 -73 7 -107 10 -35 3 -91 8
-125 11 -35 3 -81 7 -103 9 -22 1 -89 6 -150 10 -172 12 -218 12 -281 -2z"/>
<path d="M8898 8465 c-2 -2 -52 -6 -113 -10 -60 -3 -126 -8 -145 -10 -19 -2
-80 -7 -135 -10 -55 -4 -107 -8 -115 -10 -8 -2 -53 -7 -100 -10 -47 -3 -96 -8
-110 -10 -14 -2 -50 -7 -80 -10 -54 -5 -112 -13 -160 -20 -14 -2 -50 -6 -80
-10 -30 -3 -80 -10 -110 -15 -78 -13 -109 -18 -160 -25 -274 -37 -954 -193
-1140 -262 -8 -4 -19 -7 -25 -8 -15 -4 -186 -64 -210 -74 -11 -5 -92 -37 -180
-71 -250 -98 -548 -253 -615 -320 -20 -20 -41 -54 -48 -77 -9 -32 -12 -645
-12 -2799 l1 -2759 24 -49 c29 -59 55 -85 116 -113 70 -33 124 -25 255 37 60
29 115 53 122 54 7 1 18 8 24 14 7 7 16 12 22 12 5 0 71 24 145 54 160 63 173
68 186 72 6 1 64 20 130 42 309 103 868 234 1225 288 25 3 54 8 65 10 39 6
180 26 205 29 14 2 56 6 94 10 39 3 72 8 75 9 3 2 38 7 76 10 39 4 81 9 95 11
14 2 57 6 95 10 74 6 160 15 209 21 27 3 68 6 256 19 30 2 102 7 160 10 195
12 280 51 390 184 27 33 67 119 79 172 7 29 10 914 8 2649 l-2 2605 -25 55
c-13 30 -28 57 -32 58 -4 2 -8 11 -8 19 0 8 -28 43 -63 77 -63 62 -137 105
-215 126 -38 10 -167 21 -174 15z"/>
</g>
</svg>
